<?xml version="1.0" encoding="UTF-8"?>
<svg id="a" data-name="Layer 1" xmlns="http://www.w3.org/2000/svg" width="40" height="30" viewBox="0 0 40 30">
  <path d="M15.72,12.25c1.61,0,2.91,1.3,2.91,2.91s-1.3,2.91-2.91,2.91-2.91-1.3-2.91-2.91c0-1.61,1.3-2.91,2.91-2.91h0ZM20.02,7.54l1.85-2.22h-1.22c-.1,0-.21-.01-.3-.04-.06-.02-.11-.04-.15-.06-.05-.02-.09-.05-.13-.09h0s-.07-.07-.11-.12c-.03-.04-.06-.09-.08-.13-.02-.05-.04-.09-.05-.14-.01-.05-.01-.1-.01-.15s0-.1.01-.15c0-.05.02-.1.04-.14.02-.05.05-.09.08-.14.03-.04.06-.08.1-.12h0s.08-.07.13-.1.1-.05.15-.07c.05-.01.1-.03.15-.03.06,0,.11,0,.16,0h2.64c.13,0,.26.02.36.05.11.04.21.1.29.17.09.08.15.17.19.28.04.11.06.23.06.36,0,.1-.01.2-.03.29-.01.05-.03.1-.05.15s-.04.09-.07.13c-.02.03-.04.06-.07.1-.02.03-.05.07-.09.11l-.1.13-1.81,2.15h1.62c.05,0,.1,0,.15,0,.05,0,.1.02.14.03.05.01.1.03.15.06.04.02.09.05.13.08h0s.08.08.11.12c.03.04.06.09.08.14v.02s.04.09.05.13c0,.05.01.09.01.14,0,.05,0,.1-.01.15s-.02.1-.04.14c-.02.05-.04.1-.07.14-.03.04-.07.08-.11.12h0s-.08.07-.13.1c-.04.03-.1.05-.15.06h-.02s-.09.03-.13.03c-.05,0-.1,0-.15,0h-3.02c-.14,0-.26-.02-.38-.05h0c-.07-.02-.12-.05-.18-.08-.06-.03-.11-.07-.16-.11s-.09-.09-.12-.14c-.04-.05-.07-.1-.09-.16-.02-.06-.04-.11-.05-.17-.01-.06-.02-.12-.02-.18,0-.05,0-.1.01-.15,0-.05.02-.09.04-.14h0s.01-.04.02-.06l.03-.05.03-.05s.02-.04.04-.05l.27-.32h0ZM9.74,10.32h1.36c.34,0,.63.29.63.63v8.16h6.96l1.98-6.98h7.8c1.95,0,3.55,1.6,3.55,3.55v3.55h0v.07s0,5.68,0,5.68h-2.61v-2.67H11.73v2.55h-2.61v-13.91c0-.34.28-.63.63-.63h0ZM15.8,9.64l1.26-1.51h-.83s-.07,0-.11,0c-.03,0-.07-.01-.1-.02-.04-.01-.07-.03-.1-.04-.03-.02-.06-.04-.09-.06h0s-.05-.05-.07-.08c-.02-.03-.04-.06-.05-.09-.01-.03-.02-.07-.03-.1,0-.04,0-.07,0-.11s0-.07,0-.1c0-.03.02-.07.03-.1.01-.03.03-.06.05-.09.02-.03.04-.05.07-.08h0s.06-.05.09-.07c.03-.02.07-.03.11-.04.03,0,.07-.02.1-.02.04,0,.07,0,.11,0h1.81c.09,0,.18.01.25.04.08.03.14.07.2.12.06.05.1.12.13.19.03.07.04.16.04.25,0,.07,0,.14-.02.2,0,.03-.02.07-.03.1-.01.03-.03.06-.05.09-.01.02-.03.04-.05.07-.02.02-.04.05-.06.08l-.07.09s-.05.06-.08.1l-1.15,1.37h1.11c.07,0,.14,0,.2.03.04,0,.07.02.1.04.03.01.06.04.09.06h0s.05.05.07.08c.02.03.04.06.06.09v.02s.02.06.03.09c0,.03,0,.07,0,.1,0,.04,0,.07,0,.1,0,.03-.02.07-.03.1-.01.03-.03.07-.05.1s-.04.06-.07.08h0s-.06.05-.09.07c-.03.02-.07.03-.1.04h-.01s-.06.02-.09.02c-.03,0-.07,0-.1,0h-2.07s-.09,0-.14,0c-.04,0-.09-.01-.12-.03h0s-.09-.03-.12-.05c-.04-.02-.07-.05-.11-.08-.03-.03-.06-.06-.09-.09-.03-.04-.05-.07-.06-.11-.02-.04-.03-.08-.04-.12s-.01-.08-.01-.13c0-.03,0-.07,0-.1,0-.03.01-.07.03-.1,0-.01.01-.03.02-.04l.02-.03s.01-.02.02-.03c0-.01.02-.03.03-.04h0s.18-.23.18-.23h0Z" style="fill: #000; fill-rule: evenodd; stroke-width: 0px;"/>
</svg>