<?xml version="1.0" encoding="UTF-8"?>
<svg id="a" data-name="Layer 1" xmlns="http://www.w3.org/2000/svg" width="40" height="30" viewBox="0 0 40 30">
  <path d="M19.88,3.65c1.8,0,3.26,1.46,3.26,3.26s-1.46,3.26-3.26,3.26-3.26-1.46-3.26-3.26,1.46-3.26,3.26-3.26h0ZM26.32,21.08h-12.83c-.08,0-.15.07-.15.15v3.42c0,.08.07.15.15.15,10.8,0,2.17,0,12.83,0,.08,0,.15-.07.15-.15v-3.42c0-.08-.07-.15-.15-.15h0ZM24.53,10.14c.91-1.09,2.58.3,1.66,1.39l-7.2,8.64h-2.82l8.36-10.04ZM14.83,13.16c-.6.77-1.02,1.68-1.27,2.63-.26.96-.48,1.64-.52,2.65-.03.82.09,1.72,1.21,1.71,1.36,0,1.46-.85,1.57-1.8.18-.74.23-1.61.5-2.26.1-.25.23-.46.38-.63.02.92.03,1.83.03,2.75,1.85-2.21,4.12-4.94,5.64-6.78-2.58-.81-5.99-.26-7.54,1.72h0ZM23.07,20.18c0-1.21,0-2.43.02-3.64-1,1.2-2.06,2.47-3.03,3.64h3.01ZM23.48,16.08v.02c.28.65.33,1.52.51,2.26.11.94.21,1.79,1.57,1.8,1.11,0,1.24-.9,1.21-1.71-.04-.96-.25-1.56-.48-2.48-.19-.76-.48-1.51-.89-2.17-.56.67-1.22,1.46-1.93,2.3Z" style="fill: #000; fill-rule: evenodd; stroke-width: 0px;"/>
</svg>